<svg width="424" height="399" viewBox="0 0 424 399" fill="none" xmlns="http://www.w3.org/2000/svg">
<path d="M78.9446 370.32C88.095 385.319 95.6306 397.806 95.7024 398.021V398.057C95.8459 398.38 118.812 398.488 208.952 398.488C316.998 398.524 322.094 398.488 322.632 397.878C322.955 397.519 327.405 390.701 332.536 382.699C337.668 374.697 350.801 354.28 361.71 337.307C372.654 320.334 390.919 291.915 402.366 274.152C413.777 256.39 423.143 241.714 423.179 241.499C423.215 241.247 406.134 241.068 322.309 240.781L312.872 258.543C308.13 267.439 302.97 277.139 300.735 281.341L300.169 282.406C298.444 285.585 293.691 294.502 289.274 302.788L288.471 304.294C283.842 312.978 280.038 320.262 280.002 320.514C279.894 320.908 266.51 320.98 210.926 320.98C145.186 321.016 141.885 320.98 141.347 320.37C141.024 320.011 134.421 308.493 126.67 294.785C118.919 281.078 112.353 269.452 112.065 268.949C111.814 268.447 108.154 261.988 96.3124 241.14L0 240.96L17.2602 269.201C26.7335 284.774 37.8575 302.967 41.9842 309.677C46.0749 316.387 52.3187 326.65 55.8712 332.463C59.4237 338.276 69.7942 355.32 78.9446 370.32Z" fill="#FFFFFF"/>
<path d="M78.9446 28.178C88.095 13.1788 95.6306 0.691437 95.7024 0.476137V0.440254C95.8459 0.117304 118.812 0.00965462 208.952 0.00965462C316.998 -0.0262286 322.094 0.00965463 322.632 0.61967C322.955 0.978503 327.405 7.79632 332.536 15.7983C337.668 23.8003 350.801 44.2178 361.71 61.1906C372.654 78.1634 390.919 106.583 402.366 124.345C413.777 142.107 423.143 156.784 423.179 156.999C423.215 157.25 406.134 157.43 322.309 157.717L312.872 139.954C308.13 131.059 302.97 121.359 300.735 117.156L300.169 116.092C298.444 112.913 293.691 103.995 289.274 95.71L288.471 94.2032C283.842 85.5195 280.038 78.2352 280.002 77.984C279.894 77.5893 266.51 77.5175 210.926 77.5175C145.186 77.4816 141.885 77.5175 141.347 78.1275C141.024 78.4864 134.421 90.0049 126.67 103.712C118.919 117.42 112.353 129.046 112.065 129.548C111.814 130.051 108.154 136.51 96.3124 157.358L0 157.537L17.2602 129.297C26.7335 113.724 37.8575 95.5309 41.9842 88.8207C46.0749 82.1106 52.3187 71.8479 55.8712 66.0349C59.4237 60.2218 69.7942 43.1772 78.9446 28.178Z" fill="#FFFFFF"/>
<rect x="96.1689" y="156.095" width="226.069" height="86.1214" fill="#FFFFFF"/>
</svg>
